REM DIRINDEX 1\6,1\2\7,1\2\8,1\2\9,1\3\10,1\3\11,1\4\12,1\4\13,1\4\14,1\5\15,1\5\16,1\5\17
REM DIRNAME folder01,folder02,folder03,folder04,folder05,folder06,folder07,folder08,folder09,folder10,folder11,folder12,folder13,folder14,folder15,folder16,folder17
TITLE ""
FILE "P2Q_k_071-080.mp3" MP3
  TRACK 01 AUDIO
    TITLE "15:cjc040_1529"
    INDEX 01 00:00:00
  TRACK 02 AUDIO
    TITLE "0:"
    INDEX 01 00:01:36
  TRACK 03 AUDIO
    TITLE "16:cjc040_1530"
    INDEX 01 00:02:08
  TRACK 04 AUDIO
    TITLE "0:"
    INDEX 01 00:03:74
  TRACK 05 AUDIO
    TITLE "17:cjc040_1531"
    INDEX 01 00:04:52
  TRACK 06 AUDIO
    TITLE "17:cjc040_1532"
    INDEX 01 00:08:32
  TRACK 07 AUDIO
    TITLE "0:"
    INDEX 01 00:12:42
  TRACK 08 AUDIO
    TITLE "15:cjc040_1533"
    INDEX 01 00:13:14
  TRACK 09 AUDIO
    TITLE "0:"
    INDEX 01 00:14:74
  TRACK 10 AUDIO
    TITLE "16:cjc040_1534"
    INDEX 01 00:15:54
  TRACK 11 AUDIO
    TITLE "0:"
    INDEX 01 00:17:25
  TRACK 12 AUDIO
    TITLE "17:cjc040_1535"
    INDEX 01 00:18:01
  TRACK 13 AUDIO
    TITLE "17:cjc040_1536"
    INDEX 01 00:21:02
  TRACK 14 AUDIO
    TITLE "0:"
    INDEX 01 00:22:52
  TRACK 15 AUDIO
    TITLE "15:cjc040_1537"
    INDEX 01 00:23:32
  TRACK 16 AUDIO
    TITLE "0:"
    INDEX 01 00:25:35
  TRACK 17 AUDIO
    TITLE "16:cjc040_1538"
    INDEX 01 00:26:09
  TRACK 18 AUDIO
    TITLE "0:"
    INDEX 01 00:28:06
  TRACK 19 AUDIO
    TITLE "17:cjc040_1539"
    INDEX 01 00:28:55
  TRACK 20 AUDIO
    TITLE "17:cjc040_1540"
    INDEX 01 00:32:45
  TRACK 21 AUDIO
    TITLE "0:"
    INDEX 01 00:35:10
  TRACK 22 AUDIO
    TITLE "15:cjc040_1541"
    INDEX 01 00:35:61
  TRACK 23 AUDIO
    TITLE "0:"
    INDEX 01 00:37:44
  TRACK 24 AUDIO
    TITLE "16:cjc040_1542"
    INDEX 01 00:38:20
  TRACK 25 AUDIO
    TITLE "0:"
    INDEX 01 00:39:64
  TRACK 26 AUDIO
    TITLE "17:cjc040_1543"
    INDEX 01 00:40:38
  TRACK 27 AUDIO
    TITLE "17:cjc040_1544"
    INDEX 01 00:44:14
  TRACK 28 AUDIO
    TITLE "0:"
    INDEX 01 00:46:41
  TRACK 29 AUDIO
    TITLE "15:cjc040_1545"
    INDEX 01 00:47:17
  TRACK 30 AUDIO
    TITLE "0:"
    INDEX 01 00:48:42
  TRACK 31 AUDIO
    TITLE "16:cjc040_1546"
    INDEX 01 00:49:31
  TRACK 32 AUDIO
    TITLE "0:"
    INDEX 01 00:51:09
  TRACK 33 AUDIO
    TITLE "17:cjc040_1547"
    INDEX 01 00:51:65
  TRACK 34 AUDIO
    TITLE "17:cjc040_1548"
    INDEX 01 00:55:67
  TRACK 35 AUDIO
    TITLE "0:"
    INDEX 01 00:57:64
  TRACK 36 AUDIO
    TITLE "15:cjc040_1549"
    INDEX 01 00:58:38
  TRACK 37 AUDIO
    TITLE "0:"
    INDEX 01 01:00:37
  TRACK 38 AUDIO
    TITLE "16:cjc040_1550"
    INDEX 01 01:01:19
  TRACK 39 AUDIO
    TITLE "0:"
    INDEX 01 01:03:20
  TRACK 40 AUDIO
    TITLE "17:cjc040_1551"
    INDEX 01 01:04:00
  TRACK 41 AUDIO
    TITLE "17:cjc040_1552"
    INDEX 01 01:09:20
  TRACK 42 AUDIO
    TITLE "0:"
    INDEX 01 01:11:03
  TRACK 43 AUDIO
    TITLE "15:cjc040_1553"
    INDEX 01 01:11:51
  TRACK 44 AUDIO
    TITLE "0:"
    INDEX 01 01:13:45
  TRACK 45 AUDIO
    TITLE "16:cjc040_1554"
    INDEX 01 01:14:23
  TRACK 46 AUDIO
    TITLE "0:"
    INDEX 01 01:16:38
  TRACK 47 AUDIO
    TITLE "17:cjc040_1555"
    INDEX 01 01:17:18
  TRACK 48 AUDIO
    TITLE "17:cjc040_1556"
    INDEX 01 01:19:48
  TRACK 49 AUDIO
    TITLE "0:"
    INDEX 01 01:21:37
  TRACK 50 AUDIO
    TITLE "15:cjc040_1557"
    INDEX 01 01:22:13
  TRACK 51 AUDIO
    TITLE "0:"
    INDEX 01 01:24:04
  TRACK 52 AUDIO
    TITLE "16:cjc040_1558"
    INDEX 01 01:24:53
  TRACK 53 AUDIO
    TITLE "0:"
    INDEX 01 01:26:40
  TRACK 54 AUDIO
    TITLE "17:cjc040_1559"
    INDEX 01 01:27:12
  TRACK 55 AUDIO
    TITLE "17:cjc040_1560"
    INDEX 01 01:31:08
  TRACK 56 AUDIO
    TITLE "0:"
    INDEX 01 01:32:72
  TRACK 57 AUDIO
    TITLE "15:cjc040_1561"
    INDEX 01 01:33:46
  TRACK 58 AUDIO
    TITLE "0:"
    INDEX 01 01:35:63
  TRACK 59 AUDIO
    TITLE "16:cjc040_1562"
    INDEX 01 01:36:41
  TRACK 60 AUDIO
    TITLE "0:"
    INDEX 01 01:38:18
  TRACK 61 AUDIO
    TITLE "17:cjc040_1563"
    INDEX 01 01:38:69
  TRACK 62 AUDIO
    TITLE "17:cjc040_1564"
    INDEX 01 01:41:18
  TRACK 63 AUDIO
    TITLE "0:"
    INDEX 01 01:43:60
  TRACK 64 AUDIO
    TITLE "15:cjc040_1565"
    INDEX 01 01:44:34
  TRACK 65 AUDIO
    TITLE "0:"
    INDEX 01 01:46:53
  TRACK 66 AUDIO
    TITLE "16:cjc040_1566"
    INDEX 01 01:47:31
  TRACK 67 AUDIO
    TITLE "0:"
    INDEX 01 01:50:11
  TRACK 68 AUDIO
    TITLE "17:cjc040_1567"
    INDEX 01 01:50:66
  TRACK 69 AUDIO
    TITLE "17:cjc040_1568"
    INDEX 01 01:54:54
  TRACK 70 AUDIO
    TITLE "0:"
    INDEX 01 01:58:44
